<svg xmlns="http://www.w3.org/2000/svg" version="1.1" xmlns:xlink="http://www.w3.org/1999/xlink" xmlns:svgjs="http://svgjs.dev/svgjs" width="2000" height="1500" viewBox="0 0 2000 1500"><rect width="2000" height="1500" fill="#ffffff"></rect><g transform="matrix(0.75,0,0,0.75,249.8700102990033,9.619354838709683)"><svg viewBox="0 0 252 248" data-background-color="#ffffff" preserveAspectRatio="xMidYMid meet" height="1968" width="2000" xmlns="http://www.w3.org/2000/svg" xmlns:xlink="http://www.w3.org/1999/xlink"><g id="tight-bounds" transform="matrix(1,0,0,1,0.021838269767442853,0.4000000000000057)"><svg viewBox="0 0 251.95632346046511 247.2" height="247.2" width="251.95632346046511"><g><svg viewBox="0 0 251.95632346046514 247.20000000000002" height="247.2" width="251.95632346046511"><g transform="matrix(1,0,0,1,123.46981183255815,0)"><svg viewBox="0 0 128.486511627907 247.20000000000002" height="247.20000000000002" width="128.486511627907"><g id="textblocktransform"><svg viewBox="0 0 128.486511627907 247.20000000000002" height="247.20000000000002" width="128.486511627907" id="textblock"><g><svg viewBox="0 0 128.486511627907 247.20000000000002" height="247.20000000000002" width="128.486511627907"><g transform="matrix(1,0,0,1,0,0)"><svg width="128.486511627907" viewBox="0.55 -43 22.349999999999998 43" height="247.20000000000002" data-palette-color="#335a02"><path d="M17.6 0L5.85 0 0.55-43 8.75-43 11.9-13.75 14.7-43 22.9-43 17.6 0Z" opacity="1" transform="matrix(1,0,0,1,0,0)" fill="#335a02" class="wordmark-text-0" data-fill-palette-color="primary" id="text-0"></path></svg></g></svg></g></svg></g></svg></g><g transform="matrix(1,0,0,1,0,91.04408768372093)"><svg viewBox="0 0 65.11182463255814 65.11182463255814" height="65.11182463255814" width="65.11182463255814"><g><svg xmlns="http://www.w3.org/2000/svg" xmlns:xlink="http://www.w3.org/1999/xlink" version="1.0" x="0" y="0" viewBox="20 20 60 60" enable-background="new 0 0 100 100" xml:space="preserve" height="65.11182463255814" width="65.11182463255814" class="icon-icon-0" data-fill-palette-color="accent" id="icon-0"><path d="M20 26.667A6.67 6.67 0 0 1 26.667 33.334V63.334C26.667 72.539 34.128 80 43.333 80S60 72.539 60 63.334V40A3.33 3.33 0 0 1 63.333 36.667 3.33 3.33 0 0 1 66.667 40V56.666C66.667 64.023 72.637 70 80 70V63.334A6.67 6.67 0 0 1 73.333 56.666V40C73.333 34.476 68.854 30 63.333 30S53.333 34.476 53.333 40V63.334C53.333 68.857 48.854 73.334 43.333 73.334S33.333 68.857 33.333 63.334V33.334C33.333 25.973 27.363 20 20 20z" fill="#99a28e" data-fill-palette-color="accent"></path></svg></g></svg></g></svg></g><defs></defs></svg><rect width="751.95632346046511" height="547.2" fill="none" stroke="none" visibility="hidden"></rect></g></svg></g></svg>